# xmcd
#
# Track frame offsets: 
#        150
#        24113
#        42525
#        67225
#        99998
#        120905
#
# Disc length: 1960 seconds
#
# Revision: 0
# Processed by: cddbd v1.5.2PL0 Copyright (c) Steve Scherf et al.
# Submitted via: ExactAudioCopyFreeDBPlugin 1.0
#
DISCID=4507a606
DTITLE=Rhonda Clark - Must Be Real Love [CDS Promo)
DYEAR=1992
DGENRE=R&B
TTITLE0=Must Be Real Love (LP Version)
TTITLE1=Must Be Real Love (Club Mix (Radio Edit))
TTITLE2=Must Be Real Love (Club Mix (Edit))
TTITLE3=Must Be Real Love (Extended Dance Mix)
TTITLE4=Must Be Real Love (Retro Bass Mix (Radio Edit))
TTITLE5=Must Be Real Love (Dub Mix)
EXTD=
EXTT0=
EXTT1=
EXTT2=
EXTT3=
EXTT4=
EXTT5=
PLAYORDER=
